<svg xmlns="http://www.w3.org/2000/svg" width="1181.753" height="632.979" viewBox="0 0 1181.753 632.979">
  <g id="g8" transform="translate(1933.55 3476.31)">
    <g id="g10" transform="translate(-2012 -3565.66)">
      <path id="path12" d="M0-2033.682H1181.753V-2666.66H0Z" transform="translate(78.45 2756.011)" fill="none"/>
      <path id="path14" d="M432.806-1743.851l369.983-1.7,98.623-.025,32.67-.012,98.811-.024,451.418-.11s103.258-117.5-7.037-229.1c-114.353-115.706-169.954-21.472-205.105-184.344-88.48-409.969-963.256-171.356-733.809,177.511,82.616,125.617-162.624,58.85-105.554,237.808" transform="translate(-294.107 2464.504)" fill="#ebf3fa"/>
      <path id="path16" d="M1928.274-321.213H1637.329l6.821-.033,98.623-.025,32.67-.012,98.811-.025,54.02-.012v.106" transform="translate(-1135.468 1040.195)" fill="#e3edf9"/>
      <path id="path18" d="M1148-1392.048H931.728v-438.3a35.138,35.138,0,0,1,35.1-35.1h442.662a29.5,29.5,0,0,1,29.462,29.458v443.837l-54.02.012-98.811.024-32.67.012-98.623.025-6.821.033m-208.3-158.05v150.072h491.264V-1550.1h3.989v-8.869h-3.989V-1621.8h3.989v-8.872h-3.989v-62.569h3.989v-8.873h-3.989v-62.569h3.989v-8.872h-3.989v-62.438a21.506,21.506,0,0,0-21.484-21.48H966.825a27.15,27.15,0,0,0-27.118,27.12v56.8h-3.989v8.872h3.989v62.569h-3.989v8.873h3.989v62.569h-3.989v8.872h3.989v62.831h-3.989v8.869h3.989" transform="translate(-646.142 2111.03)" fill="#d9e7f7"/>
      <path id="path20" d="M1443.985-1556.764H944.743v-8.872h11.332v.2h12.467v-.2h2.909v.2h10.8v-.2H988.3l.082.67,5.47-.67h118.7v.2h50.979v-.2h140.885v.2h12.465v-.2h2.91v.2h10.8v-.2h6.044l.082.67,5.468-.67h15.047v.2h50.975v-.2h35.776v8.872" transform="translate(-655.168 1903.114)" fill="#d9e7f7"/>
      <path id="path22" d="M1443.985-1323.684H944.743v-8.872h52.2l.057.466,3.806-.466h102.98v.008h12.465v-.008h2.91v.008h10.806v-.008h6.065l.057.474,3.882-.474h304.01v8.872" transform="translate(-655.168 1741.476)" fill="#d9e7f7"/>
      <path id="path24" d="M1443.985-1090.6H944.743v-8.873h104.889v.021h10.982v-.021h1.527v.021h10.982v-.021h3.388v.021h10.981v-.021h6.13v.021H1104.6v-.021h1.528v.021h10.981v-.021h3.388v.021h10.981v-.021h104.561v.021h10.985v-.021h1.524v.021h10.981v-.021h3.388v.021H1273.9v-.021h1.81v.021h8.693v-.021h1.116v.021H1296.5v-.021h5.538v.021h8.688v-.021h15.947l.131.021,0-.021h1.586v.221h50.975v-.221h64.613v8.873" transform="translate(-655.168 1579.838)" fill="#d9e7f7"/>
      <path id="path26" d="M1443.985-856.676H944.743v-8.868h85.226l3.832.466.057-.466H1378.31l3.833.466.057-.466h61.784v8.868" transform="translate(-655.168 1417.609)" fill="#d9e7f7"/>
      <path id="path28" d="M1300.013-970.51h12.468V-1016.9h-12.468Z" transform="translate(-901.543 1522.574)" fill="#d9e7f7"/>
      <path id="path30" d="M1266.08-979.637h-10.8v-50.427h10.8v50.427" transform="translate(-870.519 1531.701)" fill="#d9e7f7"/>
      <path id="path32" d="M1211.035-980.234l-3.832-.466-6.891-.846,6.125-50.051,10.723,1.312-6.067,49.585-.057.466" transform="translate(-832.401 1532.764)" fill="#deebfb"/>
      <path id="path34" d="M2436.474-970.51h12.469V-1016.9h-12.469Z" transform="translate(-1689.665 1522.574)" fill="#d9e7f7"/>
      <path id="path36" d="M2402.542-979.637h-10.8v-50.427h10.8v50.427" transform="translate(-1658.643 1531.701)" fill="#d9e7f7"/>
      <path id="path38" d="M2347.5-980.234l-3.833-.466-6.89-.846,6.122-50.051,10.724,1.312-6.065,49.585-.057.466" transform="translate(-1620.529 1532.764)" fill="#deebfb"/>
      <path id="path40" d="M1053.025-886.081h-50.977v-9.077h50.977v9.077" transform="translate(-694.908 1438.145)" fill="#c0d9f7"/>
      <path id="path42" d="M1032.689-909.268H981.712V-915.5h50.976v6.237" transform="translate(-680.805 1452.255)" fill="#d1e3f6"/>
      <path id="path44" d="M1046.939-929.624H998.067v-6.241h48.872v6.241" transform="translate(-692.147 1466.375)" fill="#deebfb"/>
      <path id="path46" d="M1038.343-946.646H994.206v-4.765h44.137v4.765" transform="translate(-689.469 1477.156)" fill="#d9e7f7"/>
      <path id="path48" d="M1851.3-886.081h-50.975v-9.077H1851.3v9.077" transform="translate(-1248.506 1438.145)" fill="#deebfb"/>
      <path id="path50" d="M1830.971-909.268H1780V-915.5h50.975v6.237" transform="translate(-1234.405 1452.255)" fill="#d1e3f6"/>
      <path id="path52" d="M1845.217-929.624h-48.874v-6.241h48.874v6.241" transform="translate(-1245.741 1466.375)" fill="#deebfb"/>
      <path id="path54" d="M1836.627-946.646h-44.138v-4.765h44.138v4.765" transform="translate(-1243.069 1477.156)" fill="#d9e7f7"/>
      <path id="path56" d="M1825.491-965.53h-50.975v-6.241h50.975v6.241" transform="translate(-1230.605 1491.275)" fill="#d1e3f6"/>
      <path id="path58" d="M1839.737-985.881h-48.874v-6.237h48.727l.147.83v5.407" transform="translate(-1241.941 1505.385)" fill="#deebfb"/>
      <path id="path60" d="M1831.147-1002.9h-44.138v-4.765h44.138v4.765" transform="translate(-1239.269 1516.167)" fill="#d9e7f7"/>
      <path id="path62" d="M1675.662-979.837h8.689v-50.227h-8.689Z" transform="translate(-1162.051 1531.701)" fill="#d6e6f7"/>
      <path id="path64" d="M2024.275-985.043h8.688v-52.528h-8.688Z" transform="translate(-1403.81 1536.907)" fill="#d6e6f7"/>
      <path id="path66" d="M2110.155-979.837h8.693v-50.227h-8.693Z" transform="translate(-1463.366 1531.701)" fill="#d6e6f7"/>
      <path id="path68" d="M1650.808-989.2h-10.985v-54.367h10.985V-989.2" transform="translate(-1137.197 1541.068)" fill="#e7f0f9"/>
      <path id="path70" d="M2144.421-989.2H2155.4v-54.367h-10.981Z" transform="translate(-1487.13 1541.068)" fill="#e7f0f9"/>
      <path id="path72" d="M1614.977-983.342H1604v-51.776h10.981v51.776" transform="translate(-1112.352 1535.205)" fill="#d1e3f6"/>
      <path id="path74" d="M1948.965-1001.428l-6.592-37.766-.147-.83-3.364-19.286,10.818-1.888,10.1,57.878-10.818,1.892" transform="translate(-1344.577 1553.291)" fill="#d1e3f6"/>
      <path id="path76" d="M1568.169-965.376h10.981v-43.835h-10.981Z" transform="translate(-1087.506 1517.239)" fill="#d9e7f7"/>
      <path id="path78" d="M2191.3-965.376h10.981v-43.835H2191.3Z" transform="translate(-1519.641 1517.239)" fill="#d9e7f7"/>
      <path id="path80" d="M1543.324-970.711h-10.981V-1016.9h10.981v46.193" transform="translate(-1062.661 1522.574)" fill="#c0d9f7"/>
      <path id="path82" d="M1490.783-970.711h10.981V-1016.9h-10.981Z" transform="translate(-1033.84 1522.574)" fill="#deebfb"/>
      <path id="path84" d="M2232.1-970.711h10.985V-1016.9H2232.1Z" transform="translate(-1547.935 1522.574)" fill="#deebfb"/>
      <path id="path86" d="M1448.25-979.837h10.981v-50.227H1448.25Z" transform="translate(-1004.344 1531.701)" fill="#cde0fb"/>
      <path id="path88" d="M2070.688-979.837h10.981v-50.227h-10.981Z" transform="translate(-1435.997 1531.701)" fill="#cde0fb"/>
      <path id="path90" d="M2130.646-1669.949h-12.465v-46.394h12.465v46.394" transform="translate(-1468.933 2007.627)" fill="#d9e7f7"/>
      <path id="path92" d="M2179.143-1679.066h-10.8v-50.423h10.8v50.423" transform="translate(-1503.718 2016.744)" fill="#d9e7f7"/>
      <path id="path94" d="M2209.708-1679.659l-.082-.67-6.044-49.381,10.724-1.312,6.126,50.051-5.256.642-5.468.67" transform="translate(-1528.157 2017.807)" fill="#deebfb"/>
      <path id="path96" d="M1476.1-1437.5h-12.465v-46.394H1476.1v46.394" transform="translate(-1015.014 1846.423)" fill="#d9e7f7"/>
      <path id="path98" d="M1524.6-1446.622H1513.8v-50.427H1524.6v50.427" transform="translate(-1049.799 1855.55)" fill="#d9e7f7"/>
      <path id="path100" d="M1555.172-1447.22l-.057-.474-6.065-49.577,10.724-1.312,6.122,50.051-6.841.838-3.882.474" transform="translate(-1074.247 1856.613)" fill="#deebfb"/>
      <path id="path102" d="M994.179-1669.949H981.712v-46.394h12.467v46.394" transform="translate(-680.805 2007.627)" fill="#d9e7f7"/>
      <path id="path104" d="M1042.681-1679.066h-10.8v-50.423h10.8v50.423" transform="translate(-715.594 2016.744)" fill="#d9e7f7"/>
      <path id="path106" d="M1073.247-1679.659l-.082-.67-6.042-49.381,10.723-1.312,6.124,50.051-5.253.642-5.47.67" transform="translate(-740.036 2017.807)" fill="#deebfb"/>
      <path id="path108" d="M2341.476-1585.51H2290.5v-9.073h50.975v9.073" transform="translate(-1588.434 1923.188)" fill="#c0d9f7"/>
      <path id="path110" d="M2361.813-1608.693h-50.979v-6.237h50.979v6.237" transform="translate(-1602.535 1937.298)" fill="#d1e3f6"/>
      <path id="path112" d="M2350.225-1629.049h-48.87v-6.241h48.87v6.241" transform="translate(-1595.961 1951.417)" fill="#deebfb"/>
      <path id="path114" d="M2364.8-1646.071h-44.137v-4.765H2364.8v4.765" transform="translate(-1609.35 1962.198)" fill="#d9e7f7"/>
      <path id="path116" d="M1543.2-1585.51h-50.979v-9.073H1543.2v9.073" transform="translate(-1034.838 1923.188)" fill="#deebfb"/>
      <path id="path118" d="M1563.535-1608.693h-50.979v-6.237h50.979v6.237" transform="translate(-1048.939 1937.298)" fill="#d1e3f6"/>
      <path id="path120" d="M1551.947-1629.049h-48.87v-6.241h48.87v6.241" transform="translate(-1042.365 1951.417)" fill="#deebfb"/>
      <path id="path122" d="M1566.521-1646.071h-44.138v-4.765h44.138v4.765" transform="translate(-1055.754 1962.198)" fill="#d9e7f7"/>
      <path id="path124" d="M1569.015-1664.955h-50.979v-6.241h50.979v6.241" transform="translate(-1052.74 1976.318)" fill="#d1e3f6"/>
      <path id="path126" d="M1557.417-1685.306h-48.874v-5.407l.147-.83h48.727v6.236" transform="translate(-1046.156 1990.428)" fill="#deebfb"/>
      <path id="path128" d="M1572-1702.324h-44.134v-4.765H1572v4.765" transform="translate(-1059.554 2001.209)" fill="#d9e7f7"/>
      <path id="path130" d="M1754.862-1679.269h8.689v-50.224h-8.689Z" transform="translate(-1216.975 2016.746)" fill="#d6e6f7"/>
      <path id="path132" d="M1406.237-1684.476h8.689V-1737h-8.689Z" transform="translate(-975.208 2021.953)" fill="#d6e6f7"/>
      <path id="path134" d="M1320.354-1679.269h8.689v-50.224h-8.689Z" transform="translate(-915.65 2016.746)" fill="#d6e6f7"/>
      <path id="path136" d="M1783.209-1688.638h10.981V-1743h-10.981Z" transform="translate(-1236.634 2026.116)" fill="#e7f0f9"/>
      <path id="path138" d="M1278.618-1688.638H1289.6V-1743h-10.983Z" transform="translate(-886.706 2026.116)" fill="#e7f0f9"/>
      <path id="path140" d="M1819.036-1682.776h10.981v-51.774h-10.981Z" transform="translate(-1261.479 2020.253)" fill="#d1e3f6"/>
      <path id="path142" d="M1462.561-1700.857h0l-10.818-1.888,10.1-57.878,10.822,1.888-3.368,19.286-.147.83-6.592,37.762" transform="translate(-1006.766 2038.334)" fill="#d1e3f6"/>
      <path id="path144" d="M2063.757-1353.084h-50.975v-9.073h50.975v9.073" transform="translate(-1395.84 1762.003)" fill="#deebfb"/>
      <path id="path146" d="M2084.09-1376.276h-50.975v-6.24h50.975v6.24" transform="translate(-1409.94 1776.122)" fill="#d1e3f6"/>
      <path id="path148" d="M2072.5-1396.627h-48.874v-6.236H2072.5v6.236" transform="translate(-1403.357 1790.233)" fill="#deebfb"/>
      <path id="path150" d="M2087.075-1413.645h-44.134v-4.765h44.134v4.765" transform="translate(-1416.755 1801.014)" fill="#d9e7f7"/>
      <path id="path152" d="M2089.57-1432.529H2038.6v-6.24h50.975v6.24" transform="translate(-1413.741 1815.133)" fill="#d1e3f6"/>
      <path id="path154" d="M2077.976-1452.88H2029.1v-5.4l.147-.834h48.727v6.236" transform="translate(-1407.157 1829.243)" fill="#deebfb"/>
      <path id="path156" d="M2092.546-1469.907h-44.138v-4.769h44.138v4.769" transform="translate(-1420.546 1840.034)" fill="#d9e7f7"/>
      <path id="path158" d="M1983.12-1468.431l-10.818-1.888,10.1-57.878,10.818,1.888-3.363,19.286-.147.834-6.592,37.758" transform="translate(-1367.767 1877.149)" fill="#d1e3f6"/>
      <path id="path160" d="M1854.862-1664.813h10.981v-43.835h-10.981Z" transform="translate(-1286.324 2002.29)" fill="#d9e7f7"/>
      <path id="path162" d="M1231.738-1664.813h10.982v-43.835h-10.982Z" transform="translate(-854.195 2002.29)" fill="#d9e7f7"/>
      <path id="path164" d="M1890.689-1670.149h10.985v-46.193h-10.985Z" transform="translate(-1311.169 2007.627)" fill="#c0d9f7"/>
      <path id="path166" d="M1932.249-1670.149h10.985v-46.193h-10.985Z" transform="translate(-1339.991 2007.627)" fill="#deebfb"/>
      <path id="path168" d="M1190.929-1670.149h10.982v-46.193h-10.982Z" transform="translate(-825.895 2007.627)" fill="#deebfb"/>
      <path id="path170" d="M1879.355-1455.557h10.982v-54.365h-10.982Z" transform="translate(-1303.31 1864.476)" fill="#e7f0f9"/>
      <path id="path172" d="M1832.475-1431.732h10.981v-43.834h-10.981Z" transform="translate(-1270.799 1840.651)" fill="#d9e7f7"/>
      <path id="path174" d="M1791.662-1437.069h10.981v-46.193h-10.981Z" transform="translate(-1242.496 1845.988)" fill="#deebfb"/>
      <path id="path176" d="M1671.916-1437.069H1682.9v-46.193h-10.981Z" transform="translate(-1159.453 1845.988)" fill="#deebfb"/>
      <path id="path178" d="M1621.916-1437.069H1632.9v-46.193h-10.981Z" transform="translate(-1124.779 1845.988)" fill="#deebfb"/>
      <path id="path180" d="M1057.807-1455.557h10.982v-54.365h-10.982Z" transform="translate(-733.576 1864.476)" fill="#e7f0f9"/>
      <path id="path182" d="M1100.307-1456.141l-.057-.466-6.546-53.5,10.9-1.332,6.6,53.962-7.094.866-3.806.466" transform="translate(-758.47 1865.527)" fill="#e7f0f9"/>
      <path id="path184" d="M1010.927-1431.732h10.983v-43.834h-10.983Z" transform="translate(-701.065 1840.651)" fill="#d9e7f7"/>
      <path id="path186" d="M970.116-1437.069H981.1v-46.193H970.116Z" transform="translate(-672.764 1845.988)" fill="#deebfb"/>
      <path id="path188" d="M1974.782-1679.269h10.981v-50.224h-10.981Z" transform="translate(-1369.487 2016.746)" fill="#cde0fb"/>
      <path id="path190" d="M1592.876-1213.107h8.688v-50.223h-8.688Z" transform="translate(-1104.64 1693.468)" fill="#d6e6f7"/>
      <path id="path192" d="M1621.223-1222.483h10.985v-54.367h-10.985Z" transform="translate(-1124.298 1702.844)" fill="#e7f0f9"/>
      <path id="path194" d="M1657.063-1216.621h10.981V-1268.4h-10.981Z" transform="translate(-1149.153 1696.982)" fill="#d1e3f6"/>
      <path id="path196" d="M1692.889-1198.655h10.981v-43.835h-10.981Z" transform="translate(-1173.998 1679.016)" fill="#d9e7f7"/>
      <path id="path198" d="M1728.716-1203.99H1739.7v-46.193h-10.981Z" transform="translate(-1198.843 1684.351)" fill="#c0d9f7"/>
      <path id="path200" d="M1770.275-1203.99h10.981v-46.193h-10.981Z" transform="translate(-1227.664 1684.351)" fill="#deebfb"/>
      <path id="path202" d="M1812.8-1213.107h10.985v-50.223H1812.8Z" transform="translate(-1257.152 1693.468)" fill="#cde0fb"/>
      <path id="path204" d="M2241.635-1446.189h10.981v-50.224h-10.981Z" transform="translate(-1554.546 1855.108)" fill="#cde0fb"/>
      <path id="path206" d="M2280.661-1446.189h10.981v-50.224h-10.981Z" transform="translate(-1581.61 1855.108)" fill="#cde0fb"/>
      <path id="path208" d="M1352.343-1679.269h10.981v-50.224h-10.981Z" transform="translate(-937.833 2016.746)" fill="#cde0fb"/>
      <path id="path210" d="M2247.4-1119.284h-50.975v-9.073H2247.4v9.073" transform="translate(-1523.191 1599.866)" fill="#deebfb"/>
      <path id="path212" d="M2267.729-1142.467h-50.975v-6.236h50.975v6.236" transform="translate(-1537.292 1613.976)" fill="#d1e3f6"/>
      <path id="path214" d="M2256.136-1162.823h-48.875v-6.24h48.875v6.24" transform="translate(-1530.709 1628.095)" fill="#deebfb"/>
      <path id="path216" d="M2270.715-1179.845h-44.134v-4.765h44.134v4.765" transform="translate(-1544.107 1638.877)" fill="#d9e7f7"/>
      <path id="path218" d="M2273.209-1198.73h-50.975v-6.241h50.975v6.241" transform="translate(-1541.092 1652.996)" fill="#d1e3f6"/>
      <path id="path220" d="M2261.615-1219.08h-48.874v-5.407l.147-.83h48.727v6.236" transform="translate(-1534.509 1667.106)" fill="#deebfb"/>
      <path id="path222" d="M2276.186-1236.1h-44.138v-4.765h44.138v4.765" transform="translate(-1547.898 1677.888)" fill="#d9e7f7"/>
      <path id="path224" d="M2119.123-1218.246h-8.688v-52.524h8.688v52.524" transform="translate(-1463.561 1698.628)" fill="#d6e6f7"/>
      <path id="path226" d="M2033.234-1213.041h-8.693v-50.223h8.693v50.223" transform="translate(-1403.995 1693.422)" fill="#d6e6f7"/>
      <path id="path228" d="M1993.79-1222.407h-10.981v-54.363h10.981v54.363" transform="translate(-1375.053 1702.788)" fill="#e7f0f9"/>
      <path id="path230" d="M2166.759-1234.631l-.131-.021-10.687-1.868,10.1-57.877,10.818,1.888-3.364,19.286-.147.83-6.588,37.742,0,.021" transform="translate(-1495.119 1715.012)" fill="#d1e3f6"/>
      <path id="path232" d="M1946.91-1198.579h-10.981v-43.831h10.981v43.831" transform="translate(-1342.543 1678.96)" fill="#d9e7f7"/>
      <path id="path234" d="M1906.1-1203.924h-10.985v-46.193H1906.1v46.193" transform="translate(-1314.239 1684.305)" fill="#deebfb"/>
      <path id="path236" d="M1529.138-1222.407h-10.981v-54.363h10.981v54.363" transform="translate(-1052.823 1702.788)" fill="#e7f0f9"/>
      <path id="path238" d="M1482.258-1198.579h-10.981v-43.831h10.981v43.831" transform="translate(-1020.312 1678.96)" fill="#d9e7f7"/>
      <path id="path240" d="M1441.444-1203.924h-10.981v-46.193h10.981v46.193" transform="translate(-992.009 1684.305)" fill="#deebfb"/>
      <path id="path242" d="M1385.618-1222.407h-10.981v-54.363h10.981v54.363" transform="translate(-953.294 1702.788)" fill="#e7f0f9"/>
      <path id="path244" d="M1338.737-1198.579h-10.982v-43.831h10.982v43.831" transform="translate(-920.782 1678.96)" fill="#d9e7f7"/>
      <path id="path246" d="M1297.927-1203.924h-10.982v-46.193h10.982v46.193" transform="translate(-892.481 1684.305)" fill="#deebfb"/>
      <path id="path248" d="M2067.523-1213.041h-10.981v-50.223h10.981v50.223" transform="translate(-1426.186 1693.422)" fill="#cde0fb"/>
      <path id="path250" d="M2821.685-1767.716h-64.469a5.4,5.4,0,0,1-5.383-5.382v-62.222a5.4,5.4,0,0,1,5.383-5.382h64.469a5.4,5.4,0,0,1,5.378,5.382v62.222a5.4,5.4,0,0,1-5.378,5.382" transform="translate(-1908.363 2093.869)" fill="#c0d8fb"/>
      <path id="path252" d="M2826.259-1763.722h-58.883a4.931,4.931,0,0,1-4.917-4.912v-56.835a4.931,4.931,0,0,1,4.917-4.912h58.883a4.928,4.928,0,0,1,4.916,4.912v56.835a4.928,4.928,0,0,1-4.916,4.912" transform="translate(-1915.732 2086.712)" fill="#dfebfd"/>
      <path id="path254" d="M2869.473-1812.181a1.558,1.558,0,0,1,1.557-1.561,1.558,1.558,0,0,1,1.557,1.561,1.557,1.557,0,0,1-1.557,1.557,1.557,1.557,0,0,1-1.557-1.557" transform="translate(-1989.944 2075.172)" fill="#b7d3f3"/>
      <path id="path256" d="M2910.052-1803.278a1.553,1.553,0,0,1,2.117-.6,1.553,1.553,0,0,1,.6,2.117,1.553,1.553,0,0,1-2.117.6,1.553,1.553,0,0,1-.6-2.117" transform="translate(-2017.949 2068.472)" fill="#b7d3f3"/>
      <path id="path258" d="M2944.03-1774.1a1.559,1.559,0,0,1,2.154.466,1.558,1.558,0,0,1-.466,2.154,1.558,1.558,0,0,1-2.154-.466,1.559,1.559,0,0,1,.466-2.154" transform="translate(-2041.153 2047.856)" fill="#b7d3f3"/>
      <path id="path260" d="M2959.523-1730.329a1.561,1.561,0,0,1,1.561,1.561,1.56,1.56,0,0,1-1.561,1.557,1.56,1.56,0,0,1-1.557-1.557,1.56,1.56,0,0,1,1.557-1.561" transform="translate(-2051.313 2017.326)" fill="#b7d3f3"/>
      <path id="path262" d="M2948.147-1681.2a1.556,1.556,0,0,1,0,2.2,1.561,1.561,0,0,1-2.207,0,1.563,1.563,0,0,1,0-2.2,1.561,1.561,0,0,1,2.207,0" transform="translate(-2042.659 1983.574)" fill="#b7d3f3"/>
      <path id="path264" d="M2916.216-1649.189a1.556,1.556,0,0,1,0,2.2,1.557,1.557,0,0,1-2.2,0,1.556,1.556,0,0,1,0-2.2,1.556,1.556,0,0,1,2.2,0" transform="translate(-2020.516 1961.373)" fill="#b7d3f3"/>
      <path id="path266" d="M2869.473-1635.186a1.557,1.557,0,0,1,1.557-1.557,1.557,1.557,0,0,1,1.557,1.557,1.558,1.558,0,0,1-1.557,1.561,1.558,1.558,0,0,1-1.557-1.561" transform="translate(-1989.944 1952.425)" fill="#b7d3f3"/>
      <path id="path268" d="M2831.841-1803.278a1.554,1.554,0,0,0-2.117-.6,1.554,1.554,0,0,0-.6,2.117,1.553,1.553,0,0,0,2.117.6,1.554,1.554,0,0,0,.6-2.117" transform="translate(-1961.822 2068.472)" fill="#b7d3f3"/>
      <path id="path270" d="M2797.865-1774.1a1.558,1.558,0,0,0-2.154.466,1.558,1.558,0,0,0,.466,2.154,1.558,1.558,0,0,0,2.154-.466,1.559,1.559,0,0,0-.466-2.154" transform="translate(-1938.619 2047.856)" fill="#b7d3f3"/>
      <path id="path272" d="M2782.368-1730.329a1.561,1.561,0,0,0-1.561,1.561,1.56,1.56,0,0,0,1.561,1.557,1.559,1.559,0,0,0,1.557-1.557,1.56,1.56,0,0,0-1.557-1.561" transform="translate(-1928.455 2017.326)" fill="#b7d3f3"/>
      <path id="path274" d="M2793.746-1681.2a1.556,1.556,0,0,0,0,2.2,1.561,1.561,0,0,0,2.207,0,1.563,1.563,0,0,0,0-2.2,1.561,1.561,0,0,0-2.207,0" transform="translate(-1937.112 1983.574)" fill="#b7d3f3"/>
      <path id="path276" d="M2825.68-1649.189a1.556,1.556,0,0,0,0,2.2,1.557,1.557,0,0,0,2.2,0,1.556,1.556,0,0,0,0-2.2,1.556,1.556,0,0,0-2.2,0" transform="translate(-1959.258 1961.373)" fill="#b7d3f3"/>
      <path id="path278" d="M2873.18-1728.768a1.561,1.561,0,0,1,1.561-1.561,1.56,1.56,0,0,1,1.557,1.561,1.559,1.559,0,0,1-1.557,1.557,1.56,1.56,0,0,1-1.561-1.557" transform="translate(-1992.515 2017.326)" fill="#b7d3f3"/>
      <path id="path280" d="M2878-1769.286h-.425v-19.469H2878v19.469" transform="translate(-1995.566 2057.844)" fill="#b7d3f3"/>
      <path id="path282" d="M2877.128-1744.29l-.789-1.005,10.323-8.1.785,1-10.319,8.1" transform="translate(-1994.706 2033.323)" fill="#b7d3f3"/>
      <path id="path284" d="M3251.992-597.747s71.286-67.8,91.287-52.042-91.287,52.042-91.287,52.042" transform="translate(-2255.217 1269.633)" fill="#cde0fb"/>
      <path id="path286" d="M3235.179-516.115S3367.813-575.492,3399.2-544.1s-36.4,27.521-61.494,24.01-102.522,3.972-102.522,3.972" transform="translate(-2243.557 1201.041)" fill="#cde0fb"/>
      <path id="path288" d="M3217.005-605.414s.625-3.339,1.475-8.227c1.66-9.535,4.181-24.958,4.622-32.993.667-12.154,10.442-20.786,21.174-8.411s-23.148,46.3-23.148,46.3l-4.124,3.335" transform="translate(-2230.954 1275.807)" fill="#cde0fb"/>
      <path id="path290" d="M2956.5-1272.913c-9.706-25.4-52.941-12.8-52.941-12.8s-25.314,48.707-33.9,50.672,13.507-45.87,13.507-45.87c-17.026.07-57.914,25.069-57.914,25.069s8.092,53.035-.719,52.822-4.769-47.321-4.769-47.321c-15.824,6.539-29.135,27.112-29.135,27.112-15.914,32.923,27.182,51.657,27.182,51.657s2.407,18.44-6.874,40.8h0a63.056,63.056,0,0,0-4.136,11.1l4.451-.45q.362-1.845.858-3.576l.008-.021.012-.049c.237-.719.576-1.741,1-2.987l0,0v0c1.091-2.8,1.811-4.859,2.248-6.335l0-.012c3.233-8.766,8-20.238,11.684-22.915a8.7,8.7,0,0,1-1.157-1.945c.368.621.752,1.267,1.157,1.945,9.261,15.55,47.612,14.435,68.385,7.945s10.924-11.541-1.475-20.1-36.079-3.588-43.533-6.682,2.5-7.945,16.748-8.28,22.751,13.09,45.813,12.963,36.14-44.853,36.14-44.853c-15.281,6.486-44.44.633-46.079-4.7s40.3-9.007,46.667-11.3,16.47-16.494,6.768-41.894" transform="translate(-1932.819 1711.155)" fill="#dfebfd"/>
      <path id="path292" d="M1053.106-818.241c-19.972-24.423,17.658-60.685,17.658-60.685s63.641,2.616,70.578-4.9-53.975-12.861-53.975-12.861c9.891-17.1,58.65-43.847,58.65-43.847s48.727,38.743,53.6,29.748-44.894-32.1-44.894-32.1c15.714-12.158,44.105-13.7,44.105-13.7,42.331,2.975,36.328,57.175,36.328,57.175s17.173,13.061,45.049,16.617h0a73.566,73.566,0,0,1,13.556,2.24l-3.016,4.222q-2.066-.7-4.095-1.2l-.024,0-.057-.012c-.862-.18-2.084-.429-3.588-.719h-.012c-3.445-.515-5.934-.981-7.671-1.389l-.016,0c-10.687-1.8-24.991-3.621-29.809-1.459a9.99,9.99,0,0,0-1.291-2.284q.619,1.091,1.291,2.284c10.311,18.3-12.939,56.263-31.456,73.436s-17.925,4.34-19.388-13.086,17.2-38.392,18.386-47.681-9.437-2.072-18,12.085.057,30.455-13.38,53.6-66.006,10.511-66.006,10.511c15.346-11.643,26.278-44.379,21.856-49.1s-32.321,35.38-38.3,40.464-26.11,7.066-46.081-17.353" transform="translate(-726.263 1480.744)" fill="#cde0fb"/>
      <path id="path294" d="M1811.954-755.792H1609.783v-98.926h202.939a34.011,34.011,0,0,1,34.01,34.01v30.136a34.779,34.779,0,0,1-34.779,34.779" transform="translate(-1116.365 1410.1)" fill="#fcecdb"/>
      <path id="path296" d="M1998.582-814.017v14.884a55.094,55.094,0,0,1-4.344,21.8c-5.55,12.882-15.877,21.542-27.7,21.542H1578.563c-2.567,0-4.647-2.816-4.647-6.281V-764.3c0-3.47,2.08-6.286,4.647-6.286H1808.43a10.637,10.637,0,0,0,9.931-6.674l.029-.074a51.9,51.9,0,0,0,3.47-18.91v-18.922a52.723,52.723,0,0,0-.96-10.066c-.008-.053-.02-.11-.033-.163a18.136,18.136,0,0,0-17.835-14.525H1578.563c-2.566,0-4.647-2.816-4.647-6.29v-2.223c0-3.474,2.08-6.286,4.647-6.286h389.932c13.74,0,25.33,12.461,28.927,29.486a54.092,54.092,0,0,1,1.161,11.214" transform="translate(-1091.492 1410.1)" fill="#b5453c"/>
      <path id="path298" d="M1609.783-693.345l28.726,1.663-28.726,1Z" transform="translate(-1116.365 1298.19)" fill="#f4d2b8"/>
      <path id="path300" d="M1609.783-642.705l68.344,1.663-68.344,1Z" transform="translate(-1116.365 1263.072)" fill="#f4d2b8"/>
      <path id="path302" d="M1861.463-1302.852H1694.369v-83.371H1862.1a28.407,28.407,0,0,1,28.407,28.407v25.914a29.05,29.05,0,0,1-29.049,29.049" transform="translate(-1175.024 1778.693)" fill="#fcecdb"/>
      <path id="path304" d="M2016.208-1351.923v12.542a47.208,47.208,0,0,1-3.6,18.374c-4.6,10.855-13.143,18.154-22.927,18.154H1668.521c-2.125,0-3.846-2.375-3.846-5.3v-1.876c0-2.922,1.721-5.3,3.846-5.3H1864.3a36.956,36.956,0,0,0,2.746-5.685,44.407,44.407,0,0,0,2.869-15.938v-15.943a45.063,45.063,0,0,0-.793-8.484,39.2,39.2,0,0,0-4.536-12.383H1668.521c-2.125,0-3.846-2.37-3.846-5.3v-1.872c0-2.93,1.72-5.3,3.846-5.3H1991.3c11.374,0,20.965,10.5,23.945,24.852a46.417,46.417,0,0,1,.96,9.449" transform="translate(-1154.432 1778.693)" fill="#afcdfb"/>
      <path id="path306" d="M1694.369-1250.224l23.777,1.4-23.777.846Z" transform="translate(-1175.024 1684.379)" fill="#f4d2b8"/>
      <path id="path308" d="M1694.369-1207.544l56.574,1.4-56.574.842Z" transform="translate(-1175.024 1654.781)" fill="#f4d2b8"/>
      <path id="path310" d="M1688.732-467.7H1919.3v-64.85H1686.774a30.164,30.164,0,0,0-30.165,30.165v2.562a32.122,32.122,0,0,0,32.122,32.122" transform="translate(-1148.839 1186.678)" fill="#2b478b"/>
      <path id="path312" d="M2403.294-467.7H2665.9v-64.85h-263.31a30.67,30.67,0,0,0-30.668,30.672v2.812a31.365,31.365,0,0,0,31.367,31.366" transform="translate(-1644.902 1186.678)" fill="#fcecdb"/>
      <path id="path314" d="M2304.507-342.914H2624.9a4.66,4.66,0,0,0,4.659-4.659v-.384a4.659,4.659,0,0,0-4.659-4.655h-320.39a4.659,4.659,0,0,0-4.659,4.655v.384a4.66,4.66,0,0,0,4.659,4.659" transform="translate(-1594.916 1061.896)" fill="#2b478b"/>
      <path id="path316" d="M2304.507-522.843H2624.9a4.662,4.662,0,0,0,4.659-4.659v-.384a4.662,4.662,0,0,0-4.659-4.659h-320.39a4.662,4.662,0,0,0-4.659,4.659v.384a4.662,4.662,0,0,0,4.659,4.659" transform="translate(-1594.916 1186.678)" fill="#2b478b"/>
      <path id="path318" d="M3250.393-426.759l-35.641,1.091,35.641.658Z" transform="translate(-2229.391 1113.316)" fill="#f4d2b8"/>
      <path id="path320" d="M3139.186-475.439l-84.793,1.087,84.793.658Z" transform="translate(-2118.184 1147.075)" fill="#f4d2b8"/>
      <path id="path322" d="M3057.246-472.6a15.035,15.035,0,0,1,4.834,7.369,11.374,11.374,0,0,1,.376,2.558c.2,6.085,0,19.858,0,19.858l10.728-6.886,10.7,6.886v-18.664a15.68,15.68,0,0,0-2.624-9.212,4.018,4.018,0,0,0-2.963-1.909h-21.055" transform="translate(-2120.163 1145.105)" fill="#699dee"/>
      <path id="path324" d="M3057.246-472.6a15.035,15.035,0,0,1,4.834,7.369l21.5.27s-.846-6.555-5.28-7.638h-21.055" transform="translate(-2120.163 1145.105)" fill="#568cdb"/>
      <path id="path326" d="M2171.515-1034.682h260.024v-79.542h-260.8a34.015,34.015,0,0,0-34.015,34.015v10.74a34.787,34.787,0,0,0,34.787,34.787" transform="translate(-1481.795 1590.065)" fill="#fcecdb"/>
      <path id="path328" d="M1639.106-1083.365v17.124a16.719,16.719,0,0,0,1.806,7.414,21.684,21.684,0,0,0,10.225,9.633,27.716,27.716,0,0,0,11.868,2.612h278.815c3.265,0,5.914,2.211,5.914,4.941v2.019c0,2.726-2.648,4.941-5.914,4.941H1460.165c-13.826,0-26.033-5.734-33.414-14.512a30.218,30.218,0,0,1-7.381-19.547v-13.5a27.555,27.555,0,0,1,3.8-13.907c6.192-10.7,19.314-18.072,34.5-18.072h484.149c3.266,0,5.914,2.207,5.914,4.937v2.019c0,2.726-2.648,4.941-5.914,4.941H1662.152a25.391,25.391,0,0,0-16.956,6.175,19.26,19.26,0,0,0-4.365,5.66,16.249,16.249,0,0,0-1.725,7.127" transform="translate(-984.316 1590.065)" fill="#7eb2fc"/>
      <path id="path330" d="M3017.692-984.478l-35.739,1.336,35.739.805Z" transform="translate(-2067.948 1500.087)" fill="#f4d2b8"/>
      <path id="path332" d="M2906.161-1044.2l-85.034,1.336,85.034.805Z" transform="translate(-1956.417 1541.502)" fill="#f4d2b8"/>
      <path id="path334" d="M2823.993-1040.7s5.611,2.521,7.466,6.67a6.392,6.392,0,0,1,.584,2.317c.311,5.509,0,17.978,0,17.978l16.568-6.236,16.527,6.236v-16.9a10.5,10.5,0,0,0-4.05-8.337,7.54,7.54,0,0,0-4.577-1.729h-32.519" transform="translate(-1958.405 1539.08)" fill="#f99746"/>
      <path id="path336" d="M2823.993-1040.7s5.611,2.521,7.466,6.67l33.206.245a9.545,9.545,0,0,0-8.153-6.915h-32.519" transform="translate(-1958.405 1539.08)" fill="#ed7d2b"/>
      <path id="path338" d="M1437.7-319.546v.49a1.394,1.394,0,0,1-1.341,1.43H257.284a1.394,1.394,0,0,1-1.339-1.43v-.49a1.393,1.393,0,0,1,1.339-1.426H1436.358a1.393,1.393,0,0,1,1.341,1.426" transform="translate(-177.495 1039.954)" fill="#2e3552"/>
      <path id="path340" d="M2016.259-1757.689s6.036,8.93,9.477,27.7c3.012,16.437,5.656,22.506,10.009,25.878s28.6,13.323,28.6,13.323l-1.815,4.25s-35.543-4.843-39.536-10.785-19.212-41.036-18.031-49.12,11.292-11.247,11.292-11.247" transform="translate(-1390.375 2036.3)" fill="#f4a269"/>
      <path id="path342" d="M2321.591-1173.555c-.323,3.466,4.5,4.312,10.094,4.589s3.9,1.422,11.562,2.812,10.728-.711,11.284-1.745c.495-.92-3.069-2.354-6.862-3.977-.478-.2-.956-.413-1.435-.621-4.275-1.88-6.669-5.709-10-9.261-3.155-3.364-6.15-14.136-6.15-14.136l-10.409-2.223s2.922,9.694,3.939,13.834c.6,2.432-.286,5.153-1.066,7.225a13.618,13.618,0,0,0-.956,3.5" transform="translate(-1608.666 1648.244)" fill="#ffb27d"/>
      <path id="path344" d="M2335.987-1121.319c5.591.278,3.9,1.422,11.562,2.812s10.728-.711,11.284-1.745c.494-.92-3.069-2.354-6.862-3.976l-.061.061a21.791,21.791,0,0,1-11.6.139c-5.068-1.373-9.968-4.4-13.458-5.382a13.6,13.6,0,0,0-.956,3.5c-.323,3.466,4.5,4.312,10.094,4.59" transform="translate(-1612.967 1600.596)" fill="#c65447"/>
      <path id="path346" d="M1957.035-1538.332s69.169-5.207,82.194,3.012,33.9,103.944,33.9,103.944a8.474,8.474,0,0,1-4.169,1.344c-2.677.29-8.574-1.283-8.574-1.283s-30.014-42.83-32.127-53.623-1.6-20.418-6.412-20.675-64.825,7.295-73.9-8.7-1.573-31.82-1.573-31.82l10.658,7.8" transform="translate(-1347.768 1889.586)" fill="#ed7d2b"/>
      <path id="path348" d="M2235.241-1137.311c-.319,3.466,4.508,4.307,10.1,4.585s3.9,1.426,11.558,2.812,10.732-.707,11.284-1.745c.494-.916-3.065-2.354-6.862-3.977-.478-.2-.957-.413-1.435-.621-4.271-1.876-6.666-5.709-10-9.261-3.155-3.364-6.151-14.136-6.151-14.136l-10.409-2.223s2.922,9.7,3.936,13.834c.6,2.436-.282,5.158-1.063,7.23a13.793,13.793,0,0,0-.96,3.5" transform="translate(-1548.786 1623.112)" fill="#ffb27d"/>
      <path id="path350" d="M2249.633-1085.07c5.586.278,3.9,1.426,11.557,2.812s10.732-.707,11.284-1.745c.494-.915-3.065-2.354-6.862-3.976l-.057.065a21.839,21.839,0,0,1-11.6.139c-5.068-1.377-9.968-4.406-13.458-5.382a13.8,13.8,0,0,0-.96,3.5c-.319,3.465,4.508,4.307,10.1,4.585" transform="translate(-1553.079 1575.455)" fill="#c65447"/>
      <path id="path352" d="M1899.29-1506.716s61.445,2.91,74.139,11.631,29.834,105.187,29.834,105.187a8.5,8.5,0,0,1-4.214,1.181c-2.689.184-8.521-1.618-8.521-1.618s-28.322-43.966-30.014-54.833-.805-20.463-5.6-20.908-65.062,4.765-73.51-11.566,17.888-29.074,17.888-29.074" transform="translate(-1303.571 1862.253)" fill="#f99746"/>
      <path id="path354" d="M1895.97-1953.807a15.929,15.929,0,0,0-7.945-3.739,4.024,4.024,0,0,1,1.978-.384c-1.377-.58-4.933.021-4.933.021-17.929-12.767-28.567,15.722-29.895,22.633s-3.76,16.8-12.208,25.367c-21.664,21.979,9.285,47.411,9.285,47.411.131.131,15.534-32.834,31-38.13,4.443-3.919,7.736-12.007,7.99-12.645-2.26,6.5-4.353,9.939-5.905,11.778,13.854-7.442,16.862-46.3,10.634-52.311" transform="translate(-1272.738 2177.405)" fill="#163560"/>
      <path id="path356" d="M1934.906-1791.782a69.173,69.173,0,0,1,11.443,0,36.624,36.624,0,0,1,9.935,2.493c5.415,2.264,4.847,11.848-6.518,10.074s-15.657-9.727-14.86-12.567" transform="translate(-1341.769 2060.111)" fill="#ffb27d"/>
      <path id="path358" d="M1957.211-1816.634c.065.033,1.623,8.247-5.82,7.92-4.884-.217-15.419-6.126-14.488-10.311.441-1.986,4.132-7.144,4.875-18.918l.891.237,14.949,4.009s-.662,4.749-.973,9.236c-.261,3.772-.274,7.365.564,7.826" transform="translate(-1343.179 2091.954)" fill="#ffb27d"/>
      <path id="path360" d="M1970.8-1833.16s-.662,4.749-.973,9.236c-8.464-.8-12.428-8.836-13.977-13.245l14.95,4.009" transform="translate(-1356.357 2091.418)" fill="#f4a269"/>
      <path id="path362" d="M1946.361-1910.249s-2.567-7.924-2.1-14.018c.327-4.348,6.4-19.224,21.329-13.029a21.754,21.754,0,0,1,7.883,5.538c2.783,3.135,6.38,9.289-2.5,21.354l-2.575,4.185-22.032-4.03" transform="translate(-1348.279 2161.887)" fill="#163560"/>
      <path id="path364" d="M1967.94-1882.309s-19.555-4.671-16.458-16.805,2.656-20.908,15.276-18.44,13.85,7.72,13.8,12.019-7.454,24.129-12.62,23.226" transform="translate(-1353.098 2147.453)" fill="#ffb27d"/>
      <path id="path366" d="M1964.7-1919.353s-8.979,12.865-17.7,12.869-11.713-3.1-11.713-3.1a23.921,23.921,0,0,0,11.092-11.746s16.037-5.828,18.321,1.974" transform="translate(-1342.099 2151.231)" fill="#163560"/>
      <path id="path368" d="M2025.982-1910.964s3.163,4.2,3.343,7.536-1.013,9.808.9,10.07c0,0,6.5-8.644,3.384-15.272-3.3-7.029-7.622-2.334-7.622-2.334" transform="translate(-1404.994 2143.659)" fill="#163560"/>
      <path id="path370" d="M1934.18-1707.268c-1.622,1.945-6.7,2.542-12.121,3.433-4.267.7-8.75,1.586-11.938,3.462-7.238,4.246-30.888,18.611-37.819,17.957-2.689-.253-2.186-5.382-.556-12.191,2.562-10.748,7.924-25.677,7.924-32.167,0-3.543,1.181-11.93,2.755-21.513.127-.772.257-1.549.388-2.338,3.114-18.636,7.426-40.611,7.426-40.611s4.81,10.495,14.181,10.495,7.193-8,7.193-8,8.554,1.005,10.573,3.18,7.144,11.582,8.161,14.149c0,0,.208,3.265-7.875,4.818a105.975,105.975,0,0,1,2.2,14.766c.172,4.365-2.979,18.019-3.883,26.515-.323,3.008-.364,5.37.123,6.441.625,1.373,2.648,2.738,4.949,4.079,4.569,2.661,10.246,5.219,8.317,7.528" transform="translate(-1297.102 2059.564)" fill="#1c468a"/>
      <path id="path372" d="M1925.863-1635.748c5.186,8.844-14.067,11.5-17.255,13.376-7.238,4.25-29.376,19.657-36.307,19-2.689-.253-2.186-5.382-.556-12.191,2.562-10.748,7.924-25.677,7.924-32.167,0-3.543,1.181-11.929,2.755-21.513l8.341-8.01s8.942,23.107,17.463,26.9a71.911,71.911,0,0,0,12.563,4.087c-.323,3.008-.364,5.37.123,6.441.625,1.373,2.648,2.738,4.949,4.079" transform="translate(-1297.102 1980.516)" fill="#2c3a64"/>
      <path id="path374" d="M1890.346-1771.257s-7.136-4.332-14.034,3.887,4.9,66.967,15.125,69.987c11.353,3.351,45.413,3.179,45.413,3.179l-1.422-4.132s-35.388-11.4-36.839-13.27-4.618-58.7-8.243-59.651" transform="translate(-1299.772 2046.5)" fill="#ffb27d"/>
      <path id="path376" d="M1879.9-1791.236s-14.651,1.32-18.906,6.138-5.5,17.876-5.5,17.876,12.9,10.417,28.444,6.375l-4.042-30.39" transform="translate(-1286.768 2059.564)" fill="#1c468a"/>
      <path id="path378" d="M2193.838-1615.321l1.4-12.849-18.174,23.945s7.61,3.789,8.055,3.065,8.721-14.161,8.721-14.161" transform="translate(-1509.765 1946.48)" fill="#163560"/>
      <path id="path380" d="M2105.086-1586.25l-16.785,25.633h28.2l15.787-25.633h-27.2" transform="translate(-1448.212 1917.409)" fill="#1c468a"/>
      <path id="path382" d="M2213.283-1615.043l1.32-12.727-9.5,11.88Z" transform="translate(-1529.211 1946.202)" fill="#efdece"/>
      <path id="path384" d="M2088.2-1565.086l-1.287-.919L2103.6-1590.8l.527,1.394-15.922,24.317" transform="translate(-1447.25 1920.562)" fill="#efdece"/>
      <path id="path386" d="M2141.341-1590.8l26.56.748,1.165.646h-27.2l-.527-1.394" transform="translate(-1484.994 1920.562)" fill="#fcecdb"/>
      <path id="path388" d="M2086.253-1532.275a9.485,9.485,0,0,0-1.81-.012c2.027-.944,4.071-1.97,4.071-1.97s-.907-.932-4.4.307a2.637,2.637,0,0,1-1.173.131l4.888-2.2c-.871-.785-3.212-.159-5.035.511a4.025,4.025,0,0,1-3.85-.588l-.053-.041c.082-.008.155-.016.241-.029,2.849-.417,3.576-2.048,2.787-1.864s-5.574.535-5.574.535c-2.162-.123-6.445,1.529-6.445,1.529l2.395,4.418s6.886,1.283,8.676.728c.147-.045.319-.106.511-.18l6.261-.413s-.115-.674-1.492-.862" transform="translate(-1435.451 1883.978)" fill="#ffb27d"/>
      <path id="path390" d="M2896.415-956.051s36.132,15.742,42.691,15.456,46.978-12.31,46.978-12.31l-1.03,6.952s-31.19,17.941-42.094,18.959c-10.736,1-47.444-9.637-50.987-11.88s-5.857-14.9,4.442-17.177" transform="translate(-2003.465 1480.374)" fill="#ed985f"/>
      <path id="path392" d="M2764.982-1146.48s-13.331-2.534-19.968,2.317c-12.028,8.783-12.673,39.058-17.181,43.57s-15.371,2.583-16.339,25.923,4.328,25.289-1.978,35.707,2.669,20.843,2.669,20.843-3.674-5.75-2.1-9.9c0,0,1.529,9.163,7.348,11.308s6.682,3.723,7.609,6.87c0,0,49.651-25.44,49.7-43.484s9.771-35.923,5-43.741a17.281,17.281,0,0,1,2.383,7.066,9.3,9.3,0,0,0-2.1-10.589c-4.965-5.108,5.82-15.677,4.222-27.917-1.1-8.4-6.989-17.606-19.273-17.97" transform="translate(-1877.459 1612.893)" fill="#233862"/>
      <path id="path394" d="M2835.405-985.71a34.762,34.762,0,0,1-12.15,5.17c-18.722,4.328-25.9-11.5-28.6-22.363a16.174,16.174,0,0,1,6.347-1.949c1.353-.159,2.775-.266,3.952-.323,2.1-1.61,5.24-8.2,5.93-18.436l.883.237,14.753,4.038s-.674,4.692-1.005,9.126c-.258,3.47-.3,6.784.36,7.6,1.152.249,1.843.413,1.843.413l.008.012a95.455,95.455,0,0,1,7.675,16.478" transform="translate(-1938.062 1527.226)" fill="#ffb27d"/>
      <path id="path396" d="M2865.235-1018.786s-.678,4.688-1.01,9.126c-8.357-.838-12.24-8.8-13.752-13.164l14.762,4.038" transform="translate(-1976.768 1526.68)" fill="#ed985f"/>
      <path id="path398" d="M2863.781-1072.372s-19.842-1.1-18.971-13.446-1.1-20.8,11.606-20.626,14.831,5.063,15.542,9.253-2.991,24.782-8.177,24.819" transform="translate(-1972.822 1584.671)" fill="#ffb27d"/>
      <path id="path400" d="M2857.836-1109.856c-2.8-3.932-5.174-3.282-6.551-2.26-10.4-6.735-18.019,1.573-18.019,1.573a23.657,23.657,0,0,1-8.713,13.38s3.454,2.489,11.934.944a14.2,14.2,0,0,0,7.083-4.169,46.343,46.343,0,0,1-8.656,9.146c10.278-3.882,15.264-17.434,15.767-18.869,1.132,1.173,3.347,3.707,3.911,6.073.76,3.212,4.05,8.239,5.955,8.153,0,0,1.484-8.072-2.709-13.973" transform="translate(-1958.793 1590.429)" fill="#233862"/>
      <path id="path402" d="M2751.4-908.354c-1.79-9.163-7.634-45.764-1.79-57.542,2.1-4.23,10.332-4.614,19.368-4.242,2.812,1.815,13.523,8.676,17.921,7.818.049-.008.135-.029.249-.057,2.072-.519,2.853-1.974,1.124-3.229a39.338,39.338,0,0,1,10.033.613c3.139.593,11.6,4.974,11.6,4.974s-4.262,7.7-10.548,10.36c1.071,9.559-.519,13.781-10.442,35.866-8.382,18.669,1.132,35.474,1.132,35.474s-49.344,39.675-49.618,19.474c-.208-15.207,13.262-37.8,10.969-49.508" transform="translate(-1900.451 1490.219)" fill="#fff"/>
      <path id="path404" d="M2841.822-775.148a9.176,9.176,0,0,0,6.6-4.017c.241-.356.494-.74.764-1.148,5.615-8.5,7.8-34.542,20.438-62.283,3.077-6.755,14.12-7.969,17.132-15.6,0,0,7.414-24.746-14.189-25.477s-57.853,68.855-58.425,76.15c-.556,7.07-14.283,37.116,27.685,32.38" transform="translate(-1949.779 1430.187)" fill="#dd6d22"/>
      <path id="path406" d="M3120.116-567.537h-30.745s-1.153-4.9.866-8.243c1.79-2.951,1.1-4.634-.221-7.078a11.908,11.908,0,0,0,5.178.977,10.842,10.842,0,0,0,4.573-1.61c1.324,1.512,6.992,7.932,8.762,9.2,2.007,1.447,10.969.932,11.586,6.751" transform="translate(-2142.214 1222.009)" fill="#233862"/>
      <path id="path408" d="M2786.291-924.744s-4,36.409,21.954,44.04,33.32-33.5,12.367-36.458-34.321-7.581-34.321-7.581" transform="translate(-1932.104 1458.663)" fill="#ebeef2"/>
      <path id="path410" d="M2998.91-878.73c1.855,13.879,9.085,57.69,21.836,79.064,4.115,6.89-10.36,10.756-10.438,10.736-1.941-.511-5.174-3.6-6.661-4.949-10.356-9.33-31.375-35.755-31.375-56.937,0-10.332-.184-30.058,7.328-35.073,4.626-3.09,18.579,1.647,19.31,7.16" transform="translate(-2061.234 1432.396)" fill="#ed7d2b"/>
      <path id="path412" d="M2770.432-779.285s1.14-1.586,3.126-4.6c2.366-3.58,4.982-10.63,8.157-19.666,3.335-9.485,7.291-21.153,12.236-33.3,1.524-3.748,3.147-7.54,4.867-11.329,3.077-6.752,11.545-5.82,14.557-13.454,0,0,11.75-26.466-9.853-27.2s-62.651,70.8-65.009,77.727c-2.583,7.585-15.183,39.078,31.918,31.812" transform="translate(-1896.727 1433.756)" fill="#f99746"/>
      <path id="path414" d="M3046.477-567.537h-30.745s-1.153-4.9.866-8.243c1.79-2.951,1.1-4.634-.221-7.078a11.908,11.908,0,0,0,5.178.977,10.839,10.839,0,0,0,4.573-1.61c1.324,1.512,6.993,7.932,8.762,9.2,2.011,1.447,10.969.932,11.586,6.751" transform="translate(-2091.146 1222.009)" fill="#2b478b"/>
      <path id="path416" d="M2880.981-732.282c3.335-9.486,7.291-21.153,12.236-33.3-1.291-9.2-4.078-17.246-8.762-20.487,0,0-11.361,35.2-3.474,53.783" transform="translate(-1995.992 1362.49)" fill="#ed7d2b"/>
      <path id="path418" d="M2929.9-878.468c1.851,13.879,4.459,58.674,17.214,80.049,4.111,6.89-10.36,10.756-10.442,10.736-1.937-.511-5.174-3.6-6.661-4.949-10.356-9.33-31.375-35.756-31.375-56.937,0-10.332,12.122-29.229,19.633-34.244a7.555,7.555,0,0,1,11.631,5.346" transform="translate(-2010.167 1431.149)" fill="#f99746"/>
      <path id="path420" d="M2902.709-1019.465s-1.88-.744-7.156-.315c0,0,.278,2.06,4.172,2.264a3.108,3.108,0,0,0,2.984-1.949" transform="translate(-2008.031 1524.661)" fill="#fff"/>
      <path id="path422" d="M3172.757-1019.257l-6.375-11.5-13.789,38.482,8.137,8.734,12.028-35.715" transform="translate(-2186.284 1532.182)" fill="#163560"/>
      <path id="path424" d="M3080.786-986.5l-12.82,36.618,34.076-7.642,12.028-35.715-33.283,6.739" transform="translate(-2127.597 1506.162)" fill="#1c468a"/>
      <path id="path426" d="M3068.829-938.579l-.6-1.042,12.13-34.656.609.928-12.142,34.771" transform="translate(-2127.782 1493.014)" fill="#efdece"/>
      <path id="path428" d="M3107.806-988.5l32.306-6.286,1.586.474-33.283,6.739-.609-.928" transform="translate(-2155.225 1507.235)" fill="#fcecdb"/>
      <path id="path430" d="M3192.84-1017.99l-6.89-10.941-4.4,12.355,9.7-1.888,1.586.474" transform="translate(-2206.368 1530.915)" fill="#efdece"/>
      <path id="path432" d="M2884.248-965.811c-1.108-.213-3.486-1.108-5.893-1.77a4.944,4.944,0,0,0,1.741-1.949c.429-1.357.715-1.79-.715-1.361s-6.441,2.726-6.441,2.726l.016.008c-2.848.83-5.468,4.851-5.468,4.851s-35.232,12.383-39.47,12.6c-6.555.331-50.2-15.742-50.2-15.742-10.3,2.276-7.986,14.929-4.442,17.177s34.946,13.666,53.558,13.883c9.424.11,43.717-21.93,43.717-21.93s4.005-1.831,7.156-1.259,10.45,0,12.023-2.579-3.723-4.291-5.583-4.651" transform="translate(-1921.221 1490.776)" fill="#ffb27d"/>
      <path id="path434" d="M2796.75-950.412s-3.9,12.354-17.308,15.166c0,0-22.138-6.821-11.116-21.9,0,0,10.9-8.1,28.424,6.735" transform="translate(-1917.667 1482.664)" fill="#fff"/>
      <path id="path436" d="M3200.338-965.1h0a3.3,3.3,0,0,0-.118-1s-3.155-5-4.189-5.2c-3.151-.621-3.151,3.527-2.48,6.2a10.806,10.806,0,0,0,2.607,4.618h0l-.123,3.907a8.356,8.356,0,0,0,4.312-8.525" transform="translate(-2214.438 1490.991)" fill="#ffb27d"/>
      <path id="path438" d="M2213.554-752.358s-5.611,3.429-7.471,9.06a11.469,11.469,0,0,0-.584,3.151c-.307,7.487,0,24.427,0,24.427l-16.568-8.472-16.523,8.472v-22.96a16.576,16.576,0,0,1,4.05-11.329,6.515,6.515,0,0,1,4.577-2.35h32.519" transform="translate(-1506.538 1339.115)" fill="#f99746"/>
      <path id="path440" d="M2214.617-752.358s-5.611,3.429-7.471,9.06l-33.206.335s1.3-8.063,8.157-9.4h32.519" transform="translate(-1507.602 1339.115)" fill="#ed7d2b"/>
      <path id="path442" d="M1242.569-1120.325s3.52,15.272,13.778,15.272c8.793,0,20.854-19.878,20.854-19.878l-34.632,4.606" transform="translate(-861.706 1597.49)" fill="#f99746"/>
      <path id="path444" d="M1446.177-811.187l-5.885,3.122s-31.828-33.749-39.479-66.133a50.347,50.347,0,0,1-1.332-16.895s-.466-1.467-1.275-4.062c-.033-.11-.07-.229-.106-.343-.355-1.14-.781-2.477-1.251-3.993-1.537-4.892-3.649-11.59-6.052-19.216-5.542-17.545-18.211-57.113-23.626-73.571l38.915-14.079s4.418,10.078,10.769,37.472c.981,3.576,1.962,7.532,2.873,11.839,1.038,4.88,2.007,10.213,2.816,15.979a244.681,244.681,0,0,1,2.33,32.8q.037,7.35-.388,15.228a67.316,67.316,0,0,0,1.43,14.8c4.9,26.65,20.262,67.048,20.262,67.048" transform="translate(-948.116 1515.261)" fill="#2b478b"/>
      <path id="path446" d="M1622.505-357.9h-31.46s-1.173-5.019.891-8.431c1.827-3.024,1.128-4.745-.225-7.242a12.271,12.271,0,0,0,5.3,1,11.056,11.056,0,0,0,4.679-1.647c1.353,1.545,7.152,8.116,8.962,9.416,2.056,1.479,11.222.952,11.856,6.907" transform="translate(-1103.14 1076.885)" fill="#233862"/>
      <path id="path448" d="M1422.542-941.067,1398.1-895.5c-.355-1.14-.781-2.477-1.251-3.993-1.537-4.892-3.649-11.59-6.052-19.216-5.542-17.545-18.211-57.113-23.626-73.571l38.915-14.079s4.418,10.078,10.769,37.472c.981,3.576,1.962,7.532,2.873,11.839,1.038,4.88,2.007,10.213,2.816,15.979" transform="translate(-948.116 1515.261)" fill="#233862"/>
      <path id="path450" d="M1362.825-355.022s-2.178,5.346-.127,9.849h17.111s.356-4.062-5.852-8.774c-4.7-3.568-11.133-1.075-11.133-1.075" transform="translate(-944.405 1064.155)" fill="#233862"/>
      <path id="path452" d="M1375.646-1512.506c.008-.85.449-10.037,14.4-10.85,0,0-6.845.985-7.961,4.03,0,0,4.585-3.842,8.423-2.734s6.236,7.728,6.31,9.923-1.868,9.318-4.271,9.976a7.334,7.334,0,0,1-2.926.078,32.176,32.176,0,0,1,1.954,3.3c5.848,11.3.805,24.623-3.944,23.5-3.045-.719-4.9,4.557-4.9,4.557l-29.286-25.183s10.262-22.6,22.2-16.6" transform="translate(-938.601 1873.793)" fill="#2c3a64"/>
      <path id="path454" d="M1365.81-1326.03a35.567,35.567,0,0,0,12.428,5.288c19.159,4.426,26.5-11.766,29.258-22.882a16.513,16.513,0,0,0-6.49-1.994c-1.385-.163-2.844-.27-4.05-.331-2.15-1.647-5.354-8.39-6.065-18.861l-.9.241-15.1,4.132s.691,4.8,1.03,9.338c.262,3.547.3,6.939-.368,7.773-1.177.253-1.884.421-1.884.421l-.008.012a96.908,96.908,0,0,0-7.851,16.862" transform="translate(-947.172 1763.843)" fill="#ffb27d"/>
      <path id="path456" d="M1395.437-1359.878s.695,4.794,1.03,9.334c8.554-.854,12.522-9,14.071-13.466l-15.1,4.132" transform="translate(-967.718 1763.288)" fill="#ed985f"/>
      <path id="path458" d="M1365.071-1408.825s19.694-5.059,16.355-17.275-3.049-21.1-15.767-18.383-13.875,8.039-13.748,12.391,7.949,24.267,13.16,23.266" transform="translate(-937.528 1819.436)" fill="#ffb27d"/>
      <path id="path460" d="M1345.965-1443.963c2.023-4.508,4.532-4.328,6.118-3.576,9.1-8.836,18.4-2.023,18.4-2.023a24.205,24.205,0,0,0,11.415,11.688s-2.967,3.188-11.786,3.335a14.529,14.529,0,0,1-7.937-2.775,47.346,47.346,0,0,0,10.511,7.455c-11.092-1.847-18.8-14.447-19.592-15.787-.9,1.4-2.62,4.385-2.709,6.874-.123,3.376,1.193,9.9-.732,10.193,0,0-6.719-8.627-3.686-15.383" transform="translate(-932.865 1824.356)" fill="#2c3a64"/>
      <path id="path462" d="M1321.136-1302.674s33.075-8.031,47.46,3.833l-7.189,100.242-64.69-15.628s1.82-6.343,14.226-23.209,7.009-41.608,10.193-65.238" transform="translate(-899.258 1722.595)" fill="#ffb27d"/>
      <path id="path464" d="M1332.392-1012.1s-.037.339-.106.985c-.029.278-.065.617-.106,1.01-.278,2.6-.805,7.581-1.488,14.067-1.774,17-4.561,44.305-6.457,65.855-1.484,16.854-2.427,30.189-1.917,32.331,1.528,6.445,0,83.481,0,83.481-5.5,2.636-13.838,0-13.838,0s-14.644-69.423-12.593-79.072a33.222,33.222,0,0,0-1.371-17.884c-11.371-52.957-10.126-82.3-7.868-96.355a59.419,59.419,0,0,1,1.945-8.582,17.858,17.858,0,0,1,.78-2.109c25.082-6.747,43.019,6.273,43.019,6.273" transform="translate(-891.232 1524.939)" fill="#2b478b"/>
      <path id="path466" d="M1358.855-1268.52c-1.6,12.06-7.985,26.818-10.266,34.759,0,0,3.813,27.578.172,35.151a3.355,3.355,0,0,1-1.553,1.741c-13.487,5.877-66.019.168-68.236-16.776-.805-6.159,20.008-27.815,21.222-30.443.5-1.087,1.038-4.61-1.4-11.913-3.457,10.667-22.55,7.6-22.55,7.6,2.241-3.833,7.824-30.361,14.057-42.335,4.688-9,17.2-10.3,17.2-10.3s5.207,8.259,17.8,7.086,14.9-8.881,14.9-8.881,11.173,1.488,14.614,4.262c.6.482,6.134,14.255,4.042,30.055" transform="translate(-885.057 1720.865)" fill="#f99746"/>
      <path id="path468" d="M1468.646-1156.119s3.813,27.578.172,35.151c-9.829-4.933-22.637-15.579-18.738-32.216,5.664-24.174,28.832-37.693,28.832-37.693-1.6,12.06-7.986,26.818-10.266,34.759" transform="translate(-1005.115 1643.223)" fill="#ed7d2b"/>
      <path id="path470" d="M1294.133-1183.877l22.522,36.136h-38.324l-21.46-35.351,37.261-.785" transform="translate(-871.625 1638.368)" fill="#1c468a"/>
      <path id="path472" d="M1399.79-1152.126l.388-1.263-21.317-34.194-.425,1.136,21.354,34.321" transform="translate(-955.929 1640.939)" fill="#efdece"/>
      <path id="path474" d="M1294.558-1187.584l-36.1,1.03-1.584.891,37.261-.785.425-1.136" transform="translate(-871.625 1640.939)" fill="#fcecdb"/>
      <path id="path476" d="M1211.047-1206.125l-20.254-10.965,23.609,37.076,18.1,9.24-21.46-35.351" transform="translate(-825.8 1661.401)" fill="#163560"/>
      <path id="path478" d="M1478.276-1123.466c-2.166.989-7.736,7.548-9.723,8.214-8.938,2.991-46.97-4.966-46.97-4.966l1.177-6.661s37.329.989,41.432-.106c.772-.208,4.806-6.519,6.359-7.426l7.724,10.945" transform="translate(-985.851 1604.064)" fill="#ffb27d"/>
      <path id="path480" d="M1377.362-1116.535s-4.5-3.662-7.544-2.832-7.52,4.675-9.179,5.587-6.179,4.169-3.891,6.138,9.412.278,12.236-1.234,7.2-.993,7.2-.993l1.181-6.666" transform="translate(-940.449 1593.716)" fill="#ffb27d"/>
      <path id="path482" d="M1385.607-1120.9s-5.472-.65-6.968-.621-1.087.36-.262,1.516,3.674,1.606,3.8,2.011,3.425-2.906,3.425-2.906" transform="translate(-955.376 1595.125)" fill="#ffb27d"/>
      <path id="path484" d="M1474.08-1302.837s16.225,1.925,20.692,8.88c5.648,8.8,18.979,43.831,18.546,52.659,0,0-9.743,16.588-43.161,13.932,0,0-3.478-12.281,3.552-16.335,0,0,17.165-3.053,19.143-4.794l-5.738-23.83-13.033-30.512" transform="translate(-1018.939 1720.865)" fill="#f99746"/>
      <path id="path486" d="M1251.334-1140.666c-.5-2.043-4.96-.768-6.462.409a6.128,6.128,0,0,0-1.142,1.341c-.047-.339-.088-.67-.11-.924-.085-.96-1.2-2.681-1.481-1.394s-.735,6.7-.735,6.7c-.054,4.361,2.747,6.155,4.547,4.737s5.886-8.823,5.383-10.867" transform="translate(-860.898 1609.151)" fill="#ffb27d"/>
    </g>
  </g>
</svg>
