<svg xmlns="http://www.w3.org/2000/svg" width="1719.092" height="1467.502" viewBox="0 0 1719.092 1467.502">
  <g id="Group_4" data-name="Group 4" transform="translate(-437.422 -941.554)">
    <path id="Path_1" data-name="Path 1" d="M632.285,247.019c-92.083-117.2-234.033-234.4-585.833-243A41.136,41.136,0,0,0,4.5,45.338v1012.6c0,23.111,18.846,41.266,41.948,42.02,351.8,11.5,493.753,167.476,585.837,284.679m0-1137.62c92.083-117.2,234.03-234.4,585.832-243a40.785,40.785,0,0,1,41.953,40.9V1057.88c0,23.111-18.842,41.325-41.945,42.078-351.8,11.5-493.757,167.476-585.84,284.679m0-1137.62V1384.64" transform="translate(664.684 960.06)" fill="none" stroke="#387adb" stroke-linejoin="round" stroke-width="45"/>
    <path id="Path_2" data-name="Path 2" d="M1475.78,6h158.46a41.854,41.854,0,0,1,41.852,41.849V1139.28c0,33.867-39.9,56.367-70.856,42.614-66.554-29.573-177.621-65.7-323.05-65.7-246.192,0-443.141,145.378-443.141,145.378S642.094,1116.19,395.9,1116.19c-145.431,0-256.5,36.127-323.05,65.7C41.9,1195.64,2,1173.14,2,1139.28V47.852A41.853,41.853,0,0,1,43.851,6H208.115" transform="translate(457.922 1124.983)" fill="none" stroke="#387adb" stroke-linejoin="round" stroke-width="45"/>
  </g>
</svg>
